<mxfile host="app.diagrams.net" modified="2023-11-25T18:39:35.467Z" agent="Mozilla/5.0 (Windows NT 10.0; Win64; x64) AppleWebKit/537.36 (KHTML, like Gecko) Chrome/119.0.0.0 Safari/537.36" version="22.1.4" etag="KdOsNL1GobPuL7x4mHa7" type="github">
  <diagram name="Page-1" id="1yH7gdV1leZLJ6de0YRl">
    <mxGraphModel>
      <root>
        <mxCell id="0" />
        <mxCell id="1" parent="0" />
      </root>
    </mxGraphModel>
  </diagram>
</mxfile>
